# AST/ASF file generated using VICON BodyLanguage
# -----------------------------------------------
:version 1.10
:name VICON
:units
  mass 1.0
  length 0.45
  angle deg
:documentation
   .ast/.asf automatically generated from VICON data using
   VICON BodyBuilder and BodyLanguage model FoxedUp or BRILLIANT.MOD
:root
   order TX TY TZ RX RY RZ
   axis XYZ
   position 0 0 0  
   orientation 0 -0 0 
:bonedata
  begin
     id 1 
     name lhipjoint
     direction 0.432694 -0.693742 0.575759 
     length 2.19277 
     axis 0 -0 0  XYZ
  end
  begin
     id 2 
     name lfemur
     direction 0.34202 -0.939693 0  
     length 6.69022  
     axis 0 -0 20  XYZ
    dof rx ry rz
    limits (-160.0 20.0)
           (-70.0 70.0)
           (-60.0 70.0)
  end
  begin
     id 3 
     name ltibia
     direction 0.34202 -0.939693 0   
     length 6.50337   
     axis 0 -0 20   XYZ
    dof rx
    limits (-10.0 170.0)
  end
  begin
     id 4 
     name lfoot
     direction 0.158999 -0.435969 0.885805   
     length 2.70564   
     axis -90 -1.13533e-015 20   XYZ
    dof rx rz
    limits (-45.0 90.0)
           (-70.0 20.0)
  end
  begin
     id 5 
     name ltoes
     direction -0.00592919 0.00964381 0.999936   
     length 1.29929   
     axis -90 -1.13533e-015 20   XYZ
    dof rx
    limits (-90.0 20.0)
  end
  begin
     id 6 
     name rhipjoint
     direction -0.414359 -0.700339 0.581234   
     length 2.17212  
     axis 0 -0 0  XYZ 
  end
  begin
     id 7 
     name rfemur
     direction -0.34202 -0.939693 0   
     length 7.17659   
     axis 0 -0 -20   XYZ
    dof rx ry rz
    limits (-160.0 20.0)
           (-70.0 70.0)
           (-70.0 60.0)
  end
  begin
     id 8 
     name rtibia
     direction -0.34202 -0.939693 0   
     length 6.36669   
     axis 0 -0 -20   XYZ
    dof rx
    limits (-10.0 170.0)
 end
 begin
     id 9 
     name rfoot
     direction -0.137064 -0.37658 0.916188   
     length 2.22351  
     axis -90 1.13533e-015 -20   XYZ
    dof rx rz
    limits (-45.0 90.0)
           (-20.0 70.0)
  end
  begin
     id 10 
     name rtoes
     direction -0.000784077 -0.00289101 0.999996   
     length 1.09522   
     axis -90 1.13533e-015 -20   XYZ
    dof rx
    limits (-90.0 20.0)
  end
  begin
     id 11 
     name lowerback
     direction -0.0176242 0.984912 -0.172157   
     length 1.65301   
     axis 0 -0 0   XYZ
    dof rx ry rz
    limits (-20.0 45.0)
           (-30.0 30.0)
           (-30.0 30.0)
  end
  begin
     id 12 
     name upperback
     direction -0.00218128 0.998776 -0.0494072   
     length 1.67776   
     axis 0 -0 0   XYZ
    dof rx ry rz
    limits (-20.0 45.0)
           (-30.0 30.0)
           (-30.0 30.0)
  end
  begin
     id 13 
     name thorax
     direction 0.00544186 0.999658 0.0255711   
     length 1.72293   
     axis 0 -0 0   XYZ
    dof rx ry rz
    limits (-20.0 45.0)
           (-30.0 30.0)
           (-30.0 30.0)
  end
  begin
     id 14 
     name lowerneck
     direction -0.105325 0.983841 0.144785   
     length 2.14226   
     axis 0 -0 0   XYZ
    dof rx ry rz
    limits (-20.0 45.0)
           (-30.0 30.0)
           (-30.0 30.0)
  end
  begin
     id 15 
     name upperneck
     direction 0.0547957 0.988053 -0.144041   
     length 2.17508   
     axis 0 -0 0   XYZ
    dof rx ry rz
    limits (-20.0 45.0)
           (-30.0 30.0)
           (-30.0 30.0)
  end
  begin
     id 16
     name head
     direction 0.0247488 0.997534 -0.0656813  
     length 2.20048  
     axis 0 -0 0   XYZ
    dof rx ry rz
    limits (-20.0 45.0)
           (-30.0 30.0)
           (-30.0 30.0)
  end
  begin
     id 17 
     name lclavicle
     direction 0.820559 0.567247 -0.0701026  
     length 4.09615  
     axis 0 -0 0   XYZ
    dof ry rz
    limits (-20.0 10.0)
           (0.0 20.0)
  end
  begin
     id 18 
     name lhumerus
     direction 0.999977 -0.0067566 -9.96392e-005   
     length 4.59333   
     axis -180 -30 -90   XYZ
    dof rx ry rz
    limits (-60.0 90.0)
           (-90.0 90.0)
           (-90.0 90.0)
  end
  begin
     id 19
     name lradius
     direction 1 -4.48982e-011 -2.53425e-027   
     length 2.81151   
     axis -180 -30 -90   XYZ
    dof rx
    limits (-10.0 170.0)
  end
  begin
     id 20
     name lwrist
     direction 1 -4.48939e-011 -7.39254e-028   
     length 1.40576   
     axis 2.56395e-016 90 90   XYZ
    dof ry
    limits (-180.0 0.0)
 end
  begin
     id 21 
     name lhand
     direction 1 -4.48939e-011 -1.47851e-027   
     length 0.895651   
     axis 9.43423e-016 90 90   XYZ
    dof rx rz
    limits (-90.0 90.0)
           (-45.0 45.0)
  end
  begin
     id 22 
     name lfingers
     direction 1 -4.48978e-011 -2.95702e-027   
     length 0.722097   
     axis 1.88685e-015 90 90   XYZ
    dof rx
    limits (0.0 90.0)
  end
  begin
     id 23
     name lthumb
     direction 0.707107 -6.34931e-011 0.707107   
     length 1.03679   
     axis -90 45 -9.86935e-015   XYZ
    dof rx rz
    limits (-45.0 45.0)
           (-45.0 45.0)
  end
  begin
     id 24 
     name rclavicle
     direction -0.831414 0.553102 -0.0531864   
     length 4.24872  
     axis 0 -0 0   XYZ 
    dof ry rz
    limits (-10.0 20.0)
           (-20.0 0.0)
  end
  begin
     id 25 
     name rhumerus
     direction -0.999916 -0.000939607 0.0129331  
     length 4.74834   
     axis -180 30 90   XYZ
    dof rx ry rz
    limits (-90.0 60.0)
           (-90.0 90.0)
           (-90.0 90.0)
  end
  begin
     id 26 
     name rradius
     direction -1 -4.48956e-011 -1.31752e-027   
     length 2.79907   
     axis -180 30 90   XYZ
    dof rx
    limits (-10.0 170.0)
  end
  begin
     id 27 
     name rwrist
     direction -1 -4.4897e-011 -7.39254e-028   
     length 1.39954   
     axis 2.56395e-016 -90 -90   XYZ
    dof ry
    limits (-180.0 0.0)
  end
  begin
     id 28
     name rhand
     direction -0.999997 -0.00250697 0.000800838   
     length 0.953304   
     axis 9.43423e-016 -90 -90   XYZ
    dof rx rz
    limits (-90.0 90.0)
           (-45.0 45.0)
  end
  begin
     id 29
     name rfingers
     direction -1 -4.48954e-011 -2.95702e-027   
     length 0.763342   
     axis 1.88685e-015 -90 -90   XYZ
    dof rx
    limits (0.0 90.0)
  end
  begin
     id 30
     name rthumb
     direction -0.709701 -0.00217037 0.7045   
     length 1.10115   
     axis -90 -45 9.86935e-015   XYZ
    dof rx rz
    limits (-45.0 45.0)
           (-45.0 45.0)
  end
:hierarchy
  begin
    root lhipjoint rhipjoint lowerback
    lhipjoint lfemur
    lfemur ltibia
    ltibia lfoot
    lfoot ltoes
    rhipjoint rfemur
    rfemur rtibia
    rtibia rfoot
    rfoot rtoes
    lowerback upperback
    upperback thorax
    thorax lowerneck lclavicle rclavicle
    lowerneck upperneck
    upperneck head
    lclavicle lhumerus
    lhumerus lradius
    lradius lwrist
    lwrist lhand lthumb
    lhand lfingers
    rclavicle rhumerus
    rhumerus rradius
    rradius rwrist
    rwrist rhand rthumb
    rhand rfingers
  end

#!OML:ASF G:\ViconDB\ViconDB\414\test\team2\shane.ASF
:FULLY-SPECIFIED
:DEGREES
65
root 1.01975 16.5744 -21.1261 -3.13879 -7.79478 -3.36733
lowerback 10.0319 3.39482 4.59245
upperback 3.51994 4.9393 0.249288
thorax -1.57364 2.48225 -2.84899
lowerneck -16.7742 -2.25316 -3.92191
upperneck 17.7716 -3.78552 8.04681
head 8.54079 -1.21677 2.90538
rclavicle -4.39811e-014 -1.95803e-014
rhumerus -15.3683 14.8201 -101.044
rradius 42.0042
rwrist 29.1353
rhand -32.7883 -15.1621
rfingers 7.12502
rthumb -6.00984 -45.0568
lclavicle -4.39811e-014 -1.95803e-014
lhumerus -47.0183 -7.32482 83.2934
lradius 14.2833
lwrist -24.7991
lhand -35.4408 7.31109
lfingers 7.12502
lthumb -8.57015 37.1172
rfemur 29.1867 -12.5764 17.111
rtibia 1.59028e-014
rfoot -20.0071 7.10343
rtoes -19.8487
lfemur -25.7855 16.4504 -15.3237
ltibia 34.4374
lfoot -27.6109 -16.9879
ltoes -11.0694
66
root 1.0215 16.5554 -20.9773 -3.12033 -8.25862 -3.42236
lowerback 10.0602 3.58973 4.4697
upperback 3.45854 5.18948 0.273819
thorax -1.6465 2.60302 -2.78517
lowerneck -16.6947 -2.28031 -3.96484
upperneck 17.6387 -3.81091 8.07661
head 8.48476 -1.23262 2.91774
rclavicle -1.69712e-014 8.94531e-016
rhumerus -15.1504 14.9525 -100.922
rradius 42.3628
rwrist 29.6238
rhand -32.7238 -14.7095
rfingers 7.12502
rthumb -5.9476 -44.606
lclavicle -1.69712e-014 8.94531e-016
lhumerus -47.6737 -7.23873 83.0581
lradius 14.2294
lwrist -25.0321
lhand -34.7166 8.31756
lfingers 7.12502
lthumb -7.87128 38.151
rfemur 29.6242 -11.7729 17.1669
rtibia 8.26944e-014
rfoot -19.6932 6.88204
rtoes -20.6225
lfemur -25.2086 16.4883 -15.2434
ltibia 34.7328
lfoot -27.3407 -16.8563
ltoes -11.1589
67
root 1.03429 16.5434 -20.8205 -3.00808 -8.37387 -3.33957
lowerback 9.95393 3.65472 4.42072
upperback 3.35041 5.26592 0.139365
thorax -1.68634 2.63914 -2.90102
lowerneck -16.6578 -2.28789 -3.77324
upperneck 17.5391 -3.86082 8.05709
head 8.44436 -1.24762 2.87139
rclavicle -4.21672e-014 1.08338e-014
rhumerus -14.961 15.0693 -100.97
rradius 42.7648
rwrist 29.7329
rhand -32.6558 -14.6799
rfingers 7.12502
rthumb -5.88194 -44.5783
lclavicle -4.21672e-014 1.08338e-014
lhumerus -48.0363 -6.35052 81.9645
lradius 13.8348
lwrist -25.7664
lhand -34.968 7.59217
lfingers 7.12502
lthumb -8.11391 37.4164
rfemur 30.0037 -11.2793 17.0055
rtibia 5.725e-014
rfoot -19.2627 6.73153
rtoes -21.5663
lfemur -24.7423 15.7058 -15.302
ltibia 34.9846
lfoot -26.9244 -16.8658
ltoes -10.292
68
root 1.04512 16.5318 -20.6586 -2.91689 -8.63254 -3.52601
lowerback 9.91334 3.72872 4.64731
upperback 3.25563 5.38536 0.0919461
thorax -1.72673 2.6971 -3.08773
lowerneck -16.692 -2.29154 -3.84064
upperneck 17.5063 -3.88483 8.24264
head 8.44677 -1.24433 2.94244
rclavicle 6.10766e-014 -4.96962e-015
rhumerus -14.8451 15.2524 -100.947
rradius 42.9863
rwrist 30.2979
rhand -32.9588 -14.7231
rfingers 7.12502
rthumb -6.17445 -44.6131
lclavicle 6.10766e-014 -4.96962e-015
lhumerus -48.5523 -6.15247 81.5223
lradius 13.7863
lwrist -25.6269
lhand -34.7496 8.03837
lfingers 7.12502
lthumb -7.9031 37.8706
rfemur 30.426 -10.6659 17.138
rtibia -7.95139e-014
rfoot -18.7226 6.65256
rtoes -22.7848
lfemur -24.2753 15.486 -15.0885
ltibia 35.2078
lfoot -26.2083 -17.4426
ltoes -9.74834
69
root 1.05217 16.5332 -20.4926 -2.80311 -8.70944 -3.56407
lowerback 9.84766 3.74472 4.63656
upperback 3.07526 5.4063 0.0214771
thorax -1.87072 2.70085 -3.16022
lowerneck -16.5136 -2.29332 -3.69606
upperneck 17.3991 -3.9029 8.15843
head 8.37537 -1.25776 2.88605
rclavicle -1.24066e-013 1.47101e-014
rhumerus -14.9007 15.2616 -101.022
rradius 43.1905
rwrist 30.5851
rhand -33.0211 -14.7441
rfingers 7.12502
rthumb -6.23459 -44.6323
lclavicle 6.10766e-014 -4.96962e-015
lhumerus -48.5523 -6.15247 81.5223
lradius 13.7863
lwrist -25.6269
lhand -34.7496 8.03837
lfingers 7.12502
lthumb -7.9031 37.8706
rfemur 30.8064 -10.2201 17.1038
rtibia 3.18055e-014
rfoot -18.0926 6.65224
rtoes -23.8984
lfemur -24.0403 15.2791 -15.1053
ltibia 35.3921
lfoot -25.0717 -17.7929
ltoes -9.09173
70
root 1.06588 16.5412 -20.3218 -2.74765 -8.91072 -3.44566
lowerback 9.73297 3.82638 4.49883
upperback 2.98699 5.49514 -0.109941
thorax -1.89209 2.74362 -3.22324
lowerneck -16.366 -2.30043 -3.59818
upperneck 17.1739 -3.93418 8.20486
head 8.27498 -1.26889 2.87875
rclavicle -3.13831e-014 2.24627e-014
rhumerus -14.9033 15.1742 -101.034
rradius 43.2657
rwrist 31.0397
rhand -33.0665 -14.2635
rfingers 7.12502
rthumb -6.27839 -44.1505
lclavicle -3.13831e-014 2.24627e-014
lhumerus -49.4658 -4.81534 79.8241
lradius 13.2681
lwrist -26.8041
lhand -34.7861 8.0168
lfingers 7.12502
lthumb -7.93833 37.8477
rfemur 31.2149 -9.60964 16.8458
rtibia 2.8625e-014
rfoot -17.2614 6.89663
rtoes -24.6121
lfemur -23.8057 14.8342 -15.2386
ltibia 35.7148
lfoot -24.108 -17.0625
ltoes -9.10533
71
root 1.07953 16.5447 -20.1538 -2.71669 -8.86208 -3.45001
lowerback 9.72428 3.8145 4.49367
upperback 2.84852 5.48117 -0.16841
thorax -2.02724 2.73084 -3.28575
lowerneck -16.1734 -2.34892 -3.52105
upperneck 17.0135 -4.00002 8.14378
head 8.18839 -1.30858 2.83545
rclavicle 9.42239e-014 5.1684e-015
rhumerus -15.1078 15.2185 -100.998
rradius 43.409
rwrist 31.3488
rhand -33.1683 -14.545
rfingers 7.12502
rthumb -6.37671 -44.429
lclavicle -3.13831e-014 2.24627e-014
lhumerus -49.4658 -4.81534 79.8241
lradius 13.2681
lwrist -26.8041
lhand -34.7861 8.0168
lfingers 7.12502
lthumb -7.93833 37.8477
rfemur 31.6694 -9.26109 16.7117
rtibia -3.18055e-015
rfoot -16.2165 7.03053
rtoes -25.6306
lfemur -23.4324 14.0254 -15.195
ltibia 36.0208
lfoot -23.3006 -16.1719
ltoes -9.01533
72
root 1.09504 16.5216 -19.9876 -2.74508 -8.88302 -3.36415
lowerback 9.69467 3.8093 4.40693
upperback 2.84948 5.46172 -0.273186
thorax -2.00948 2.7222 -3.34158
lowerneck -16.3057 -2.39949 -3.59196
upperneck 16.9429 -4.0819 8.32333
head 8.19974 -1.3324 2.89684
rclavicle -2.4376e-014 -1.5704e-014
rhumerus -15.1085 15.0814 -100.918
rradius 43.2642
rwrist 31.8984
rhand -33.2239 -13.9419
rfingers 7.12502
rthumb -6.43041 -43.8243
lclavicle -2.4376e-014 -1.5704e-014
lhumerus -49.7807 -2.78319 77.6417
lradius 12.461
lwrist -28.4697
lhand -34.6085 7.49634
lfingers 7.12502
lthumb -7.76693 37.3337
rfemur 32.1592 -8.80778 16.4251
rtibia 6.67916e-014
rfoot -14.9777 7.45954
rtoes -26.6776
lfemur -23.0198 13.1534 -15.1843
ltibia 36.4072
lfoot -22.6867 -15.1355
ltoes -8.90881
73
root 1.10878 16.5312 -19.8158 -2.73159 -8.76534 -3.21583
lowerback 9.60141 3.77836 4.11927
upperback 2.82075 5.38954 -0.295138
thorax -2.01959 2.68556 -3.19238
lowerneck -16.3564 -2.50085 -3.82061
upperneck 16.8167 -4.19229 8.50754
head 8.18308 -1.38256 2.98217
rclavicle -1.61264e-014 -3.18055e-015
rhumerus -15.3517 15.3728 -100.779
rradius 43.2861
rwrist 31.8694
rhand -33.1722 -13.9795
rfingers 7.12502
rthumb -6.38041 -43.8634
lclavicle -2.4376e-014 -1.5704e-014
lhumerus -49.7807 -2.78319 77.6417
lradius 12.461
lwrist -28.4697
lhand -34.6085 7.49634
lfingers 7.12502
lthumb -7.76693 37.3337
rfemur 32.5644 -8.49529 16.0846
rtibia 1.27222e-014
rfoot -13.5386 7.84162
rtoes -28.0063
lfemur -22.5112 12.6956 -15.3509
ltibia 36.7231
lfoot -22.5851 -14.591
ltoes -8.51379
